<mxfile host="Electron" agent="Mozilla/5.0 (Windows NT 10.0; Win64; x64) AppleWebKit/537.36 (KHTML, like Gecko) draw.io/26.2.2 Chrome/134.0.6998.178 Electron/35.1.2 Safari/537.36" version="26.2.2">
  <diagram name="ParqueAtracciones" id="uAbalmy1KbienzZ5_xm3">
    <mxGraphModel dx="1027" dy="516" grid="1" gridSize="10" guides="1" tooltips="1" connect="1" arrows="1" fold="1" page="1" pageScale="1" pageWidth="827" pageHeight="1169" math="0" shadow="0">
      <root>
        <mxCell id="0" />
        <mxCell id="1" parent="0" />
        <mxCell id="DI2bRy1kGK9AIGrkYOoL-3" value="ZonaTematica" style="shape=swimlane;whiteSpace=wrap;html=1;" vertex="1" parent="1">
          <mxGeometry x="54" y="250" width="212.5" height="130" as="geometry" />
        </mxCell>
        <mxCell id="DI2bRy1kGK9AIGrkYOoL-31" value="&lt;br&gt;nombre: String&lt;br&gt;descripcion: String&lt;br&gt;color: String" style="text;html=1;align=center;verticalAlign=middle;whiteSpace=wrap;rounded=0;" vertex="1" parent="DI2bRy1kGK9AIGrkYOoL-3">
          <mxGeometry x="6.25" y="65" width="200" height="50" as="geometry" />
        </mxCell>
        <mxCell id="DI2bRy1kGK9AIGrkYOoL-4" value="Hotel" style="shape=swimlane;whiteSpace=wrap;html=1;" vertex="1" parent="1">
          <mxGeometry x="480" y="180" width="120" height="80" as="geometry" />
        </mxCell>
        <mxCell id="DI2bRy1kGK9AIGrkYOoL-5" value="Habitacion&lt;br&gt;&lt;div&gt;&lt;br&gt;&lt;/div&gt;" style="shape=swimlane;whiteSpace=wrap;html=1;" vertex="1" parent="1">
          <mxGeometry x="614" y="320" width="120" height="80" as="geometry" />
        </mxCell>
        <mxCell id="DI2bRy1kGK9AIGrkYOoL-33" value="precio: float&lt;div&gt;numero: int&lt;/div&gt;" style="text;html=1;align=center;verticalAlign=middle;whiteSpace=wrap;rounded=0;" vertex="1" parent="DI2bRy1kGK9AIGrkYOoL-5">
          <mxGeometry x="5" y="45" width="110" height="30" as="geometry" />
        </mxCell>
        <mxCell id="DI2bRy1kGK9AIGrkYOoL-6" value="Atraccion&lt;br&gt;&lt;div&gt;&lt;br&gt;&lt;/div&gt;" style="shape=swimlane;whiteSpace=wrap;html=1;" vertex="1" parent="1">
          <mxGeometry x="54" y="510" width="225" height="110" as="geometry" />
        </mxCell>
        <mxCell id="DI2bRy1kGK9AIGrkYOoL-30" value="&lt;div&gt;&lt;br&gt;&lt;/div&gt;&lt;div&gt;-nombre: String&lt;/div&gt;&lt;div&gt;alturaMin: int&lt;/div&gt;capacidad: int&lt;div&gt;duracion: int&lt;/div&gt;" style="text;html=1;align=center;verticalAlign=middle;whiteSpace=wrap;rounded=0;" vertex="1" parent="DI2bRy1kGK9AIGrkYOoL-6">
          <mxGeometry x="-24" y="20" width="270" height="100" as="geometry" />
        </mxCell>
        <mxCell id="DI2bRy1kGK9AIGrkYOoL-7" value="Restaurante&lt;div&gt;&lt;br/&gt;&lt;/div&gt;" style="shape=swimlane;whiteSpace=wrap;html=1;" vertex="1" parent="1">
          <mxGeometry x="310" y="560" width="180" height="100" as="geometry" />
        </mxCell>
        <mxCell id="DI2bRy1kGK9AIGrkYOoL-32" value="&lt;div&gt;nombre: String&lt;br&gt;&lt;/div&gt;horario: String&lt;div&gt;precioMedio: float&lt;/div&gt;" style="text;html=1;align=center;verticalAlign=middle;whiteSpace=wrap;rounded=0;" vertex="1" parent="DI2bRy1kGK9AIGrkYOoL-7">
          <mxGeometry x="15" y="50" width="150" height="50" as="geometry" />
        </mxCell>
        <mxCell id="DI2bRy1kGK9AIGrkYOoL-29" style="edgeStyle=orthogonalEdgeStyle;rounded=0;orthogonalLoop=1;jettySize=auto;html=1;" edge="1" parent="1" source="DI2bRy1kGK9AIGrkYOoL-8">
          <mxGeometry relative="1" as="geometry">
            <mxPoint x="440" y="540" as="targetPoint" />
          </mxGeometry>
        </mxCell>
        <mxCell id="DI2bRy1kGK9AIGrkYOoL-8" value="Tienda&lt;br&gt;&lt;div&gt;&lt;br&gt;&lt;/div&gt;" style="shape=swimlane;whiteSpace=wrap;html=1;" vertex="1" parent="1">
          <mxGeometry x="400" y="300" width="150" height="80" as="geometry" />
        </mxCell>
        <mxCell id="DI2bRy1kGK9AIGrkYOoL-34" value="&lt;div&gt;nombre: String&lt;/div&gt;horario: String" style="text;html=1;align=center;verticalAlign=middle;whiteSpace=wrap;rounded=0;" vertex="1" parent="DI2bRy1kGK9AIGrkYOoL-8">
          <mxGeometry y="45" width="150" height="30" as="geometry" />
        </mxCell>
        <mxCell id="DI2bRy1kGK9AIGrkYOoL-9" value="Espectaculo&lt;div&gt;&lt;br/&gt;&lt;/div&gt;" style="shape=swimlane;whiteSpace=wrap;html=1;" vertex="1" parent="1">
          <mxGeometry x="614" y="510" width="195" height="100" as="geometry" />
        </mxCell>
        <mxCell id="DI2bRy1kGK9AIGrkYOoL-35" value="nombre: String&lt;div&gt;tipo: String&lt;br&gt;&lt;/div&gt;&lt;div&gt;duracion: int&lt;/div&gt;" style="text;html=1;align=center;verticalAlign=middle;whiteSpace=wrap;rounded=0;" vertex="1" parent="DI2bRy1kGK9AIGrkYOoL-9">
          <mxGeometry y="55" width="195" height="30" as="geometry" />
        </mxCell>
        <mxCell id="DI2bRy1kGK9AIGrkYOoL-10" value="Entrada&lt;div&gt;&lt;br/&gt;&lt;/div&gt;" style="shape=swimlane;whiteSpace=wrap;html=1;" vertex="1" parent="1">
          <mxGeometry x="54" y="690" width="120" height="70" as="geometry" />
        </mxCell>
        <mxCell id="DI2bRy1kGK9AIGrkYOoL-26" value="fecha: Date" style="text;html=1;align=center;verticalAlign=middle;whiteSpace=wrap;rounded=0;" vertex="1" parent="DI2bRy1kGK9AIGrkYOoL-10">
          <mxGeometry x="5" y="40" width="110" height="30" as="geometry" />
        </mxCell>
        <mxCell id="DI2bRy1kGK9AIGrkYOoL-11" value="Compra&lt;div&gt;&lt;br/&gt;&lt;/div&gt;" style="shape=swimlane;whiteSpace=wrap;html=1;" vertex="1" parent="1">
          <mxGeometry x="300" y="690" width="120" height="70" as="geometry" />
        </mxCell>
        <mxCell id="DI2bRy1kGK9AIGrkYOoL-25" value="fecha: Date" style="text;html=1;align=center;verticalAlign=middle;whiteSpace=wrap;rounded=0;" vertex="1" parent="DI2bRy1kGK9AIGrkYOoL-11">
          <mxGeometry x="5" y="40" width="110" height="30" as="geometry" />
        </mxCell>
        <mxCell id="DI2bRy1kGK9AIGrkYOoL-12" value="Cliente&lt;br&gt;&lt;div&gt;&lt;br&gt;&lt;/div&gt;" style="shape=swimlane;whiteSpace=wrap;html=1;" vertex="1" parent="1">
          <mxGeometry x="560" y="810" width="180" height="110" as="geometry" />
        </mxCell>
        <mxCell id="DI2bRy1kGK9AIGrkYOoL-24" value="&lt;div&gt;nombre: String&lt;/div&gt;&lt;div&gt;apellidos: String&lt;/div&gt;&lt;div&gt;&lt;span style=&quot;background-color: transparent; color: light-dark(rgb(0, 0, 0), rgb(255, 255, 255));&quot;&gt;NIF: String&lt;/span&gt;&lt;/div&gt;contacto: String" style="text;html=1;align=center;verticalAlign=middle;whiteSpace=wrap;rounded=0;" vertex="1" parent="DI2bRy1kGK9AIGrkYOoL-12">
          <mxGeometry x="15" y="30" width="150" height="80" as="geometry" />
        </mxCell>
        <mxCell id="DI2bRy1kGK9AIGrkYOoL-13" value="ReservaHotel&lt;div&gt;&lt;br/&gt;&lt;/div&gt;" style="shape=swimlane;whiteSpace=wrap;html=1;" vertex="1" parent="1">
          <mxGeometry x="560" y="670" width="160" height="80" as="geometry" />
        </mxCell>
        <mxCell id="DI2bRy1kGK9AIGrkYOoL-27" value="fechaEntrada: Date&lt;div&gt;fechaSalida: Date&lt;/div&gt;" style="text;html=1;align=center;verticalAlign=middle;whiteSpace=wrap;rounded=0;" vertex="1" parent="DI2bRy1kGK9AIGrkYOoL-13">
          <mxGeometry x="15" y="40" width="130" height="30" as="geometry" />
        </mxCell>
        <mxCell id="DI2bRy1kGK9AIGrkYOoL-28" style="edgeStyle=orthogonalEdgeStyle;rounded=0;orthogonalLoop=1;jettySize=auto;html=1;exitX=0.5;exitY=1;exitDx=0;exitDy=0;" edge="1" parent="DI2bRy1kGK9AIGrkYOoL-13" source="DI2bRy1kGK9AIGrkYOoL-27" target="DI2bRy1kGK9AIGrkYOoL-27">
          <mxGeometry relative="1" as="geometry" />
        </mxCell>
        <mxCell id="DI2bRy1kGK9AIGrkYOoL-14" style="endArrow=block;html=1;" edge="1" parent="1" source="DI2bRy1kGK9AIGrkYOoL-4" target="DI2bRy1kGK9AIGrkYOoL-3">
          <mxGeometry relative="1" as="geometry" />
        </mxCell>
        <mxCell id="DI2bRy1kGK9AIGrkYOoL-15" style="endArrow=block;html=1;" edge="1" parent="1" source="DI2bRy1kGK9AIGrkYOoL-5" target="DI2bRy1kGK9AIGrkYOoL-4">
          <mxGeometry relative="1" as="geometry" />
        </mxCell>
        <mxCell id="DI2bRy1kGK9AIGrkYOoL-16" style="endArrow=block;html=1;" edge="1" parent="1" source="DI2bRy1kGK9AIGrkYOoL-6" target="DI2bRy1kGK9AIGrkYOoL-3">
          <mxGeometry relative="1" as="geometry" />
        </mxCell>
        <mxCell id="DI2bRy1kGK9AIGrkYOoL-17" style="endArrow=block;html=1;" edge="1" parent="1" source="DI2bRy1kGK9AIGrkYOoL-7" target="DI2bRy1kGK9AIGrkYOoL-3">
          <mxGeometry relative="1" as="geometry" />
        </mxCell>
        <mxCell id="DI2bRy1kGK9AIGrkYOoL-18" style="endArrow=block;html=1;" edge="1" parent="1" source="DI2bRy1kGK9AIGrkYOoL-8" target="DI2bRy1kGK9AIGrkYOoL-3">
          <mxGeometry relative="1" as="geometry" />
        </mxCell>
        <mxCell id="DI2bRy1kGK9AIGrkYOoL-19" style="endArrow=block;html=1;" edge="1" parent="1" source="DI2bRy1kGK9AIGrkYOoL-9" target="DI2bRy1kGK9AIGrkYOoL-3">
          <mxGeometry relative="1" as="geometry" />
        </mxCell>
        <mxCell id="DI2bRy1kGK9AIGrkYOoL-20" style="endArrow=block;html=1;" edge="1" parent="1" source="DI2bRy1kGK9AIGrkYOoL-10" target="DI2bRy1kGK9AIGrkYOoL-11">
          <mxGeometry relative="1" as="geometry" />
        </mxCell>
        <mxCell id="DI2bRy1kGK9AIGrkYOoL-21" style="endArrow=block;html=1;" edge="1" parent="1" source="DI2bRy1kGK9AIGrkYOoL-13" target="DI2bRy1kGK9AIGrkYOoL-11">
          <mxGeometry relative="1" as="geometry" />
        </mxCell>
        <mxCell id="DI2bRy1kGK9AIGrkYOoL-22" style="endArrow=block;html=1;" edge="1" parent="1" source="DI2bRy1kGK9AIGrkYOoL-13" target="DI2bRy1kGK9AIGrkYOoL-12">
          <mxGeometry relative="1" as="geometry" />
        </mxCell>
      </root>
    </mxGraphModel>
  </diagram>
</mxfile>
